<mxfile host="app.diagrams.net" modified="2023-11-05T10:51:57.759Z" agent="Mozilla/5.0 (Windows NT 10.0; Win64; x64) AppleWebKit/537.36 (KHTML, like Gecko) Chrome/119.0.0.0 Safari/537.36" etag="Pj_C0OTu5cDsK8TYSWDX" version="22.0.8" type="github">
  <diagram name="Page-1" id="zXPfUbV_PlMYqEEOmxEf">
    <mxGraphModel dx="1235" dy="666" grid="1" gridSize="10" guides="1" tooltips="1" connect="1" arrows="1" fold="1" page="1" pageScale="1" pageWidth="850" pageHeight="1100" math="0" shadow="0">
      <root>
        <mxCell id="0" />
        <mxCell id="1" parent="0" />
        <mxCell id="alLgOjoT97Wj0h5GKDA_-1" value="Lucrari cadastru &lt;br&gt;GIS" style="shape=cylinder3;whiteSpace=wrap;html=1;boundedLbl=1;backgroundOutline=1;size=15;fillColor=#0050ef;strokeColor=#001DBC;fontColor=#ffffff;" vertex="1" parent="1">
          <mxGeometry x="60" y="20" width="120" height="130" as="geometry" />
        </mxCell>
        <mxCell id="alLgOjoT97Wj0h5GKDA_-2" value="sectoare_cadastrale" style="rounded=0;whiteSpace=wrap;html=1;fillColor=#dae8fc;strokeColor=#6c8ebf;" vertex="1" parent="1">
          <mxGeometry x="130" y="170" width="190" height="70" as="geometry" />
        </mxCell>
        <mxCell id="alLgOjoT97Wj0h5GKDA_-5" value="rețea_sprijin" style="rounded=0;whiteSpace=wrap;html=1;fillColor=#dae8fc;strokeColor=#6c8ebf;" vertex="1" parent="1">
          <mxGeometry x="130" y="260" width="190" height="70" as="geometry" />
        </mxCell>
        <mxCell id="alLgOjoT97Wj0h5GKDA_-6" value="echipă" style="rounded=0;whiteSpace=wrap;html=1;fillColor=#dae8fc;strokeColor=#6c8ebf;" vertex="1" parent="1">
          <mxGeometry x="130" y="350" width="190" height="70" as="geometry" />
        </mxCell>
        <mxCell id="alLgOjoT97Wj0h5GKDA_-7" value="angajați" style="rounded=0;whiteSpace=wrap;html=1;fillColor=#dae8fc;strokeColor=#6c8ebf;" vertex="1" parent="1">
          <mxGeometry x="130" y="440" width="190" height="70" as="geometry" />
        </mxCell>
        <mxCell id="alLgOjoT97Wj0h5GKDA_-8" value="echipament" style="rounded=0;whiteSpace=wrap;html=1;fillColor=#dae8fc;strokeColor=#6c8ebf;" vertex="1" parent="1">
          <mxGeometry x="390" y="170" width="190" height="70" as="geometry" />
        </mxCell>
        <mxCell id="alLgOjoT97Wj0h5GKDA_-9" value="hardwere" style="rounded=0;whiteSpace=wrap;html=1;fillColor=#dae8fc;strokeColor=#6c8ebf;" vertex="1" parent="1">
          <mxGeometry x="390" y="260" width="190" height="70" as="geometry" />
        </mxCell>
        <mxCell id="alLgOjoT97Wj0h5GKDA_-10" value="flotă" style="rounded=0;whiteSpace=wrap;html=1;fillColor=#dae8fc;strokeColor=#6c8ebf;" vertex="1" parent="1">
          <mxGeometry x="390" y="350" width="190" height="70" as="geometry" />
        </mxCell>
        <mxCell id="alLgOjoT97Wj0h5GKDA_-11" value="documente" style="rounded=0;whiteSpace=wrap;html=1;fillColor=#dae8fc;strokeColor=#6c8ebf;" vertex="1" parent="1">
          <mxGeometry x="390" y="440" width="190" height="70" as="geometry" />
        </mxCell>
        <mxCell id="alLgOjoT97Wj0h5GKDA_-12" value="măsurătoare" style="rounded=0;whiteSpace=wrap;html=1;fillColor=#dae8fc;strokeColor=#6c8ebf;" vertex="1" parent="1">
          <mxGeometry x="630" y="170" width="190" height="70" as="geometry" />
        </mxCell>
        <mxCell id="alLgOjoT97Wj0h5GKDA_-13" value="primărie" style="rounded=0;whiteSpace=wrap;html=1;fillColor=#dae8fc;strokeColor=#6c8ebf;" vertex="1" parent="1">
          <mxGeometry x="630" y="260" width="190" height="70" as="geometry" />
        </mxCell>
        <mxCell id="alLgOjoT97Wj0h5GKDA_-14" value="proprietar" style="rounded=0;whiteSpace=wrap;html=1;fillColor=#dae8fc;strokeColor=#6c8ebf;" vertex="1" parent="1">
          <mxGeometry x="630" y="350" width="190" height="70" as="geometry" />
        </mxCell>
        <mxCell id="alLgOjoT97Wj0h5GKDA_-15" value="softwere" style="rounded=0;whiteSpace=wrap;html=1;fillColor=#dae8fc;strokeColor=#6c8ebf;" vertex="1" parent="1">
          <mxGeometry x="630" y="440" width="190" height="70" as="geometry" />
        </mxCell>
        <mxCell id="alLgOjoT97Wj0h5GKDA_-16" value="dosar" style="rounded=0;whiteSpace=wrap;html=1;fillColor=#dae8fc;strokeColor=#6c8ebf;" vertex="1" parent="1">
          <mxGeometry x="860" y="170" width="190" height="70" as="geometry" />
        </mxCell>
        <mxCell id="alLgOjoT97Wj0h5GKDA_-17" value="templates" style="rounded=0;whiteSpace=wrap;html=1;fillColor=#dae8fc;strokeColor=#6c8ebf;" vertex="1" parent="1">
          <mxGeometry x="860" y="260" width="190" height="70" as="geometry" />
        </mxCell>
        <mxCell id="alLgOjoT97Wj0h5GKDA_-18" value="planșe" style="rounded=0;whiteSpace=wrap;html=1;fillColor=#dae8fc;strokeColor=#6c8ebf;" vertex="1" parent="1">
          <mxGeometry x="860" y="350" width="190" height="70" as="geometry" />
        </mxCell>
        <mxCell id="alLgOjoT97Wj0h5GKDA_-19" value="respingeri" style="rounded=0;whiteSpace=wrap;html=1;fillColor=#dae8fc;strokeColor=#6c8ebf;" vertex="1" parent="1">
          <mxGeometry x="860" y="440" width="190" height="70" as="geometry" />
        </mxCell>
        <mxCell id="alLgOjoT97Wj0h5GKDA_-20" value="completări" style="rounded=0;whiteSpace=wrap;html=1;fillColor=#dae8fc;strokeColor=#6c8ebf;" vertex="1" parent="1">
          <mxGeometry x="1100" y="170" width="190" height="70" as="geometry" />
        </mxCell>
        <mxCell id="alLgOjoT97Wj0h5GKDA_-21" value="contestații" style="rounded=0;whiteSpace=wrap;html=1;fillColor=#dae8fc;strokeColor=#6c8ebf;" vertex="1" parent="1">
          <mxGeometry x="1100" y="260" width="190" height="70" as="geometry" />
        </mxCell>
      </root>
    </mxGraphModel>
  </diagram>
</mxfile>
